<svg xmlns="http://www.w3.org/2000/svg" viewBox="0 0 181.2 106.2"><defs><style>.a{fill:#f8f8f8;}.b{fill:#052c4f;}.c{fill:#174988;}</style></defs><rect class="a" width="181.2" height="106.2" rx="45.92"/><path class="b" d="M99.85,55.33A112.67,112.67,0,0,1,87.13,39.48c-2.65-4.12-5-8.72-7.75-11.63a20.07,20.07,0,0,1-4.93-8.28c-5.62,1.59-9.46,3-14.52,8.2-35.07,36.2,15.67,92,54.66,55.3,2.86-2.69,1.83-5.92,3.52-8.88C112.74,67.88,105.55,61.45,99.85,55.33Z"/><path class="c" d="M114.59,83.07C78.47,112.36,28.2,65.79,59.93,27.77c.49-.59,1.06-1.17,1.64-1.74,7.24-7.24,15.29-10.61,23.2-11.09a1.39,1.39,0,0,1,1.46,1.34,8.41,8.41,0,0,0,7.61,8.47,1.12,1.12,0,0,1,.92,1.41,15.69,15.69,0,0,0,19.86,19.35,1.11,1.11,0,0,1,1.43.84c1,5.62,6.14,4.57,8.49,3.76a1.24,1.24,0,0,1,1.6.84C130.91,68.07,114.59,83.07,114.59,83.07Z"/><path class="a" d="M90.08,46.91c0,4.24-3.44,7.1-7.68,7.1s-7.68-2.86-7.68-7.1a7.68,7.68,0,1,1,15.36,0Z"/><path class="a" d="M114.14,65.36a5.9,5.9,0,0,1-5.9,5.9c-3.25,0-5.51-1.93-5.51-5.19s2.26-6.6,5.51-6.6A5.9,5.9,0,0,1,114.14,65.36Z"/><path class="a" d="M70.13,58.17c0,2.5-1.82,3.93-4.32,3.93s-4.71-1.43-4.71-3.93a4.52,4.52,0,1,1,9,0Z"/><path class="a" d="M84,73.49a2,2,0,1,1-2-2A2,2,0,0,1,84,73.49Z"/><circle class="a" cx="70.05" cy="31.74" r="2.26"/><path class="c" d="M111.38,18c.23,2.76-2.16,5-5.35,5a5.26,5.26,0,0,1-5.47-5.46,5,5,0,0,1,5.35-5A6.26,6.26,0,0,1,111.38,18Z"/><path class="b" d="M107.23,21.87a5.83,5.83,0,0,0,3.3-.95,5.61,5.61,0,0,1-4.5,2,5.26,5.26,0,0,1-5.47-5.46,5.43,5.43,0,0,1,2.33-4.22,5.4,5.4,0,0,0-1.13,3.12A5.34,5.34,0,0,0,107.23,21.87Z"/><path class="c" d="M111.06,33.55a3.88,3.88,0,0,1-3.44,3.52,3.06,3.06,0,0,1-3.15-3.31,3.52,3.52,0,0,1,3.44-3.52A3.08,3.08,0,0,1,111.06,33.55Z"/><path class="b" d="M108.33,36.3a3.62,3.62,0,0,0,2-.76,3.72,3.72,0,0,1-2.67,1.52,3.05,3.05,0,0,1-3.14-3.3,3.65,3.65,0,0,1,1.41-2.84,3.62,3.62,0,0,0-.69,2.07A3.07,3.07,0,0,0,108.33,36.3Z"/><path class="c" d="M134.46,35a4.55,4.55,0,0,1-4,4.14,3.6,3.6,0,0,1-3.7-3.89,4.13,4.13,0,0,1,4-4.14A3.6,3.6,0,0,1,134.46,35Z"/><path class="b" d="M131.26,38.24a4.17,4.17,0,0,0,2.29-.89,4.37,4.37,0,0,1-3.13,1.8,3.6,3.6,0,0,1-3.7-3.89,4.26,4.26,0,0,1,1.66-3.34,4.25,4.25,0,0,0-.82,2.44A3.59,3.59,0,0,0,131.26,38.24Z"/></svg>